<mxfile host="app.diagrams.net" modified="2023-07-18T01:09:00.365Z" agent="Mozilla/5.0 (Macintosh; Intel Mac OS X 10_15_7) AppleWebKit/537.36 (KHTML, like Gecko) Chrome/114.0.0.0 Safari/537.36" version="21.5.0" etag="DU_SP32_b578Hwf3KOi2" type="github">
  <diagram name="Page-1" id="Fj6IoqAWS7B8lhqRLbAn">
    <mxGraphModel>
      <root>
        <mxCell id="0" />
        <mxCell id="1" parent="0" />
      </root>
    </mxGraphModel>
  </diagram>
</mxfile>
